<mxfile host="app.diagrams.net" modified="2023-11-24T13:10:33.604Z" agent="Mozilla/5.0 (Macintosh; Intel Mac OS X 10_15_7) AppleWebKit/605.1.15 (KHTML, like Gecko) Version/16.6 Safari/605.1.15" version="22.1.3" etag="h9d_3Gzh2Ykyr3EmJ4QH" type="github">
  <diagram name="Page-1" id="K1GpD0jHCVneVQ49ujit">
    <mxGraphModel>
      <root>
        <mxCell id="0" />
        <mxCell id="1" parent="0" />
      </root>
    </mxGraphModel>
  </diagram>
</mxfile>
